REM DIRINDEX 1\2,1\3,1\4
REM DIRNAME cjc151,folder01,folder02,folder03
TITLE ""
FILE "022 022_TOEFL_3900.mp3" MP3
  TRACK 01 AUDIO
    TITLE "2:cjc151_0931"
    INDEX 01 00:00:00
  TRACK 02 AUDIO
    TITLE "0:"
    INDEX 01 00:01:32
  TRACK 03 AUDIO
    TITLE "3:cjc151_0932"
    INDEX 01 00:03:12
  TRACK 04 AUDIO
    TITLE "0:"
    INDEX 01 00:08:01
  TRACK 05 AUDIO
    TITLE "2:cjc151_0933"
    INDEX 01 00:09:55
  TRACK 06 AUDIO
    TITLE "0:"
    INDEX 01 00:10:72
  TRACK 07 AUDIO
    TITLE "3:cjc151_0934"
    INDEX 01 00:12:54
  TRACK 08 AUDIO
    TITLE "0:"
    INDEX 01 00:16:38
  TRACK 09 AUDIO
    TITLE "2:cjc151_0935"
    INDEX 01 00:18:17
  TRACK 10 AUDIO
    TITLE "0:"
    INDEX 01 00:19:18
  TRACK 11 AUDIO
    TITLE "3:cjc151_0936"
    INDEX 01 00:20:71
  TRACK 12 AUDIO
    TITLE "0:"
    INDEX 01 00:24:49
  TRACK 13 AUDIO
    TITLE "2:cjc151_0937"
    INDEX 01 00:26:26
  TRACK 14 AUDIO
    TITLE "0:"
    INDEX 01 00:27:28
  TRACK 15 AUDIO
    TITLE "3:cjc151_0938"
    INDEX 01 00:29:11
  TRACK 16 AUDIO
    TITLE "0:"
    INDEX 01 00:32:33
  TRACK 17 AUDIO
    TITLE "2:cjc151_0939"
    INDEX 01 00:34:14
  TRACK 18 AUDIO
    TITLE "0:"
    INDEX 01 00:35:08
  TRACK 19 AUDIO
    TITLE "3:cjc151_0940"
    INDEX 01 00:36:68
  TRACK 20 AUDIO
    TITLE "0:"
    INDEX 01 00:40:40
  TRACK 21 AUDIO
    TITLE "2:cjc151_0941"
    INDEX 01 00:42:19
  TRACK 22 AUDIO
    TITLE "0:"
    INDEX 01 00:43:25
  TRACK 23 AUDIO
    TITLE "3:cjc151_0942"
    INDEX 01 00:45:04
  TRACK 24 AUDIO
    TITLE "0:"
    INDEX 01 00:49:08
  TRACK 25 AUDIO
    TITLE "2:cjc151_0943"
    INDEX 01 00:50:60
  TRACK 26 AUDIO
    TITLE "0:"
    INDEX 01 00:52:06
  TRACK 27 AUDIO
    TITLE "3:cjc151_0944"
    INDEX 01 00:53:58
  TRACK 28 AUDIO
    TITLE "0:"
    INDEX 01 00:57:15
  TRACK 29 AUDIO
    TITLE "2:cjc151_0945"
    INDEX 01 00:58:71
  TRACK 30 AUDIO
    TITLE "0:"
    INDEX 01 01:01:58
  TRACK 31 AUDIO
    TITLE "3:cjc151_0946"
    INDEX 01 01:03:51
  TRACK 32 AUDIO
    TITLE "0:"
    INDEX 01 01:07:14
  TRACK 33 AUDIO
    TITLE "2:cjc151_0947"
    INDEX 01 01:08:66
  TRACK 34 AUDIO
    TITLE "0:"
    INDEX 01 01:09:69
  TRACK 35 AUDIO
    TITLE "3:cjc151_0948"
    INDEX 01 01:11:51
  TRACK 36 AUDIO
    TITLE "0:"
    INDEX 01 01:15:21
  TRACK 37 AUDIO
    TITLE "2:cjc151_0949"
    INDEX 01 01:16:73
  TRACK 38 AUDIO
    TITLE "0:"
    INDEX 01 01:18:06
  TRACK 39 AUDIO
    TITLE "3:cjc151_0950"
    INDEX 01 01:19:56
  TRACK 40 AUDIO
    TITLE "0:"
    INDEX 01 01:24:10
  TRACK 41 AUDIO
    TITLE "2:cjc151_0951"
    INDEX 01 01:25:62
  TRACK 42 AUDIO
    TITLE "0:"
    INDEX 01 01:26:60
  TRACK 43 AUDIO
    TITLE "3:cjc151_0952"
    INDEX 01 01:28:39
  TRACK 44 AUDIO
    TITLE "0:"
    INDEX 01 01:32:74
  TRACK 45 AUDIO
    TITLE "2:cjc151_0953"
    INDEX 01 01:34:54
  TRACK 46 AUDIO
    TITLE "0:"
    INDEX 01 01:35:67
  TRACK 47 AUDIO
    TITLE "3:cjc151_0954"
    INDEX 01 01:37:46
  TRACK 48 AUDIO
    TITLE "0:"
    INDEX 01 01:41:22
  TRACK 49 AUDIO
    TITLE "2:cjc151_0955"
    INDEX 01 01:43:02
  TRACK 50 AUDIO
    TITLE "0:"
    INDEX 01 01:44:09
  TRACK 51 AUDIO
    TITLE "3:cjc151_0956"
    INDEX 01 01:45:63
  TRACK 52 AUDIO
    TITLE "0:"
    INDEX 01 01:50:09
  TRACK 53 AUDIO
    TITLE "2:cjc151_0957"
    INDEX 01 01:51:64
  TRACK 54 AUDIO
    TITLE "0:"
    INDEX 01 01:52:65
  TRACK 55 AUDIO
    TITLE "3:cjc151_0958"
    INDEX 01 01:54:44
  TRACK 56 AUDIO
    TITLE "0:"
    INDEX 01 01:59:12
  TRACK 57 AUDIO
    TITLE "2:cjc151_0959"
    INDEX 01 02:00:67
  TRACK 58 AUDIO
    TITLE "0:"
    INDEX 01 02:02:17
  TRACK 59 AUDIO
    TITLE "3:cjc151_0960"
    INDEX 01 02:03:69
  TRACK 60 AUDIO
    TITLE "0:"
    INDEX 01 02:07:33
  TRACK 61 AUDIO
    TITLE "2:cjc151_0961"
    INDEX 01 02:09:11
  TRACK 62 AUDIO
    TITLE "0:"
    INDEX 01 02:10:28
  TRACK 63 AUDIO
    TITLE "3:cjc151_0962"
    INDEX 01 02:12:05
  TRACK 64 AUDIO
    TITLE "0:"
    INDEX 01 02:15:33
  TRACK 65 AUDIO
    TITLE "2:cjc151_0963"
    INDEX 01 02:17:26
  TRACK 66 AUDIO
    TITLE "0:"
    INDEX 01 02:18:35
  TRACK 67 AUDIO
    TITLE "3:cjc151_0964"
    INDEX 01 02:20:14
  TRACK 68 AUDIO
    TITLE "0:"
    INDEX 01 02:24:02
  TRACK 69 AUDIO
    TITLE "2:cjc151_0965"
    INDEX 01 02:25:57
  TRACK 70 AUDIO
    TITLE "0:"
    INDEX 01 02:27:05
  TRACK 71 AUDIO
    TITLE "3:cjc151_0966"
    INDEX 01 02:28:59
  TRACK 72 AUDIO
    TITLE "0:"
    INDEX 01 02:32:37
  TRACK 73 AUDIO
    TITLE "2:cjc151_0967"
    INDEX 01 02:34:26
  TRACK 74 AUDIO
    TITLE "0:"
    INDEX 01 02:35:38
  TRACK 75 AUDIO
    TITLE "3:cjc151_0968"
    INDEX 01 02:37:17
  TRACK 76 AUDIO
    TITLE "0:"
    INDEX 01 02:41:71
  TRACK 77 AUDIO
    TITLE "2:cjc151_0969"
    INDEX 01 02:43:51
  TRACK 78 AUDIO
    TITLE "0:"
    INDEX 01 02:44:46
  TRACK 79 AUDIO
    TITLE "3:cjc151_0970"
    INDEX 01 02:46:28
  TRACK 80 AUDIO
    TITLE "0:"
    INDEX 01 02:49:55
  TRACK 81 AUDIO
    TITLE "2:cjc151_0971"
    INDEX 01 02:51:39
  TRACK 82 AUDIO
    TITLE "0:"
    INDEX 01 02:52:40
  TRACK 83 AUDIO
    TITLE "3:cjc151_0972"
    INDEX 01 02:54:25
  TRACK 84 AUDIO
    TITLE "0:"
    INDEX 01 02:58:23
  TRACK 85 AUDIO
    TITLE "2:cjc151_0973"
    INDEX 01 03:00:08
  TRACK 86 AUDIO
    TITLE "0:"
    INDEX 01 03:01:21
  TRACK 87 AUDIO
    TITLE "3:cjc151_0974"
    INDEX 01 03:03:03
  TRACK 88 AUDIO
    TITLE "0:"
    INDEX 01 03:07:08
